<?xml version="1.0" standalone="no"?><!-- Generator: Gravit.io --><svg xmlns="http://www.w3.org/2000/svg" xmlns:xlink="http://www.w3.org/1999/xlink" style="isolation:isolate" viewBox="0 0 130 80" width="130" height="80"><defs><clipPath id="_clipPath_aI9XsWzuUxrzRqCOdbWEDw4Q24oNzAhh"><rect width="130" height="80"/></clipPath></defs><g clip-path="url(#_clipPath_aI9XsWzuUxrzRqCOdbWEDw4Q24oNzAhh)"><defs><filter id="Gy7M7a38NLuOKnWiAXl60yZAKOKRfQMO" x="0" y="0" width="130" height="80" filterUnits="userSpaceOnUse"><feOffset xmlns="http://www.w3.org/2000/svg" in="SourceGraphic" dx="-3" dy="-3"/><feGaussianBlur xmlns="http://www.w3.org/2000/svg" stdDeviation="4.293609062839028" result="pf_100_offsetBlur"/><feComposite xmlns="http://www.w3.org/2000/svg" in="SourceGraphic" in2="pf_100_offsetBlur" result="pf_100_inverse" operator="out"/><feFlood xmlns="http://www.w3.org/2000/svg" flood-color="#E8E8E8" flood-opacity="0.6" result="pf_100_color"/><feComposite xmlns="http://www.w3.org/2000/svg" in="pf_100_color" in2="pf_100_inverse" operator="in" result="pf_100_shadow"/><feComposite xmlns="http://www.w3.org/2000/svg" in="pf_100_shadow" in2="SourceGraphic" operator="over"/></filter></defs><g filter="url(#Gy7M7a38NLuOKnWiAXl60yZAKOKRfQMO)"><path d=" M 117.895 80 C 124.935 77.503 130 70.607 130 62.5 C 130 52.29 121.965 44 112.069 44 C 110.493 44 108.965 44.21 107.507 44.601 C 110.403 40.182 112.069 35.017 112.069 29.5 C 112.069 13.219 97.562 0 79.693 0 C 65.928 0 54.158 7.845 49.486 18.896 C 46.091 17.061 42.11 16 37.854 16 C 25.484 16 15.441 24.962 15.441 36 C 15.441 38.85 16.11 41.562 17.331 44.011 C 7.712 44.337 0 52.497 0 62.5 C 0 70.355 4.756 77.074 11.456 79.755 L 11.456 80 L 117.895 80 Z " fill="rgb(255,254,255)"/></g></g></svg>