<?xml version="1.0" standalone="no"?><!-- Generator: Gravit.io --><svg xmlns="http://www.w3.org/2000/svg" xmlns:xlink="http://www.w3.org/1999/xlink" style="isolation:isolate" viewBox="0 0 150 85" width="150" height="85"><defs><clipPath id="_clipPath_Wnfr1aKFKOH61lrd6Na9PF02Jk8myzqb"><rect width="150" height="85"/></clipPath></defs><g clip-path="url(#_clipPath_Wnfr1aKFKOH61lrd6Na9PF02Jk8myzqb)"><defs><filter id="mBZzcuoDpW6Fwd8OPMiIyWKsXkqTkarD" x="2" y="1" width="148" height="83" filterUnits="userSpaceOnUse"><feOffset xmlns="http://www.w3.org/2000/svg" in="SourceGraphic" dx="-3" dy="-3"/><feGaussianBlur xmlns="http://www.w3.org/2000/svg" stdDeviation="4.293609062839028" result="pf_100_offsetBlur"/><feComposite xmlns="http://www.w3.org/2000/svg" in="SourceGraphic" in2="pf_100_offsetBlur" result="pf_100_inverse" operator="out"/><feFlood xmlns="http://www.w3.org/2000/svg" flood-color="#D1D1D1" flood-opacity="0.6" result="pf_100_color"/><feComposite xmlns="http://www.w3.org/2000/svg" in="pf_100_color" in2="pf_100_inverse" operator="in" result="pf_100_shadow"/><feComposite xmlns="http://www.w3.org/2000/svg" in="pf_100_shadow" in2="SourceGraphic" operator="over"/></filter></defs><g filter="url(#mBZzcuoDpW6Fwd8OPMiIyWKsXkqTkarD)"><path d=" M 20 83.823 C 9.829 82.616 2 75.359 2 66.6 C 2 61.555 4.597 57.008 8.743 53.829 C 7.617 50.77 7 47.458 7 44 C 7 28.546 19.322 16 34.5 16 C 41.439 16 47.781 18.622 52.616 22.952 C 55.306 10.426 67.001 1 81 1 C 96.737 1 109.563 12.912 109.986 27.739 C 113.839 25.349 118.279 24 123 24 C 137.902 24 150 37.443 150 54 C 150 69.431 139.492 82.156 126 83.817 L 126 84 L 123 84 L 123 84 L 23 84 L 23 84 L 20 84 L 20 83.823 Z " fill="rgb(255,254,255)"/></g></g></svg>